<?xml version="1.0" encoding="UTF-8"?>
<svg version="1.1" xmlns="http://www.w3.org/2000/svg" width="500" height="500">
<path d="M0 0 C6.571576 6.99733229 8.96261624 16.84137773 10.94140625 25.98046875 C11.18717911 27.08102097 11.43295197 28.18157318 11.68617249 29.31547546 C14.85846513 43.82969436 17.50006171 58.45217411 20.12426758 73.07348633 C20.86224661 77.1838555 21.61465609 81.29144681 22.37053585 85.39855671 C22.95772726 88.59984717 23.53642711 91.8026283 24.11264229 95.00591087 C24.38687374 96.52344984 24.66397102 98.040474 24.94407463 99.55694008 C25.33084264 101.65668175 25.70583348 103.758203 26.07788086 105.8605957 C26.40048134 107.64491753 26.40048134 107.64491753 26.729599 109.46528625 C27.0514672 112.52028271 26.91803617 114.69150901 26.0625 117.625 C23.39025521 120.29724479 15.7035525 118.85497917 11.85229492 118.86523438 C9.63747685 118.87494529 7.42358459 118.9059579 5.20898438 118.9375 C3.8072972 118.9440293 2.40560336 118.94928006 1.00390625 118.953125 C-0.27798584 118.9624707 -1.55987793 118.97181641 -2.88061523 118.98144531 C-3.88938721 118.86381836 -4.89815918 118.74619141 -5.9375 118.625 C-10.31420357 112.05994465 -9.08746503 102.30654222 -8.9375 94.625 C-9.72511719 94.81835938 -10.51273438 95.01171875 -11.32421875 95.2109375 C-19.15489323 97.08288572 -26.96401976 98.5157597 -34.9375 99.625 C-35.11925781 100.69427734 -35.11925781 100.69427734 -35.3046875 101.78515625 C-37.20425694 112.6419262 -37.20425694 112.6419262 -38.9375 117.625 C-41.4306163 118.87155815 -43.13095311 118.75435252 -45.91796875 118.7578125 C-46.91763672 118.75910156 -47.91730469 118.76039063 -48.94726562 118.76171875 C-49.99591797 118.75785156 -51.04457031 118.75398438 -52.125 118.75 C-53.15431641 118.75386719 -54.18363281 118.75773437 -55.24414062 118.76171875 C-69.81945558 118.74304442 -69.81945558 118.74304442 -71.9375 116.625 C-72.28437513 111.25079371 -71.35053578 106.67603708 -69.77734375 101.5859375 C-69.55250809 100.83200714 -69.32767242 100.07807678 -69.09602356 99.30130005 C-68.36595467 96.86429608 -67.62145429 94.43203087 -66.875 92 C-66.36006651 90.30412299 -65.84541972 88.60815889 -65.33105469 86.91210938 C-64.09088408 82.83572763 -62.83648653 78.7638997 -61.57611084 74.69372559 C-61.03585085 72.94359921 -60.50272442 71.19127314 -59.97119141 69.43847656 C-54.72866955 52.1822444 -47.64397704 35.53318107 -40.70654297 18.90283203 C-39.53790132 16.09944127 -38.40989945 13.2848192 -37.31298828 10.45263672 C-36.80379744 9.17542124 -36.29452472 7.8982384 -35.78515625 6.62109375 C-35.35340088 5.50790771 -34.92164551 4.39472168 -34.47680664 3.24780273 C-32.62806365 0.0977558 -31.40666917 -0.44580685 -27.9375 -1.375 C-19.24300507 -3.53284998 -7.70694437 -5.77186743 0 0 Z M-20.9375 37.625 C-20.6075 38.285 -20.2775 38.945 -19.9375 39.625 C-19.6075 38.965 -19.2775 38.305 -18.9375 37.625 C-19.5975 37.625 -20.2575 37.625 -20.9375 37.625 Z M-17.9375 42.625 C-19.11122973 46.22690542 -20.27526256 49.83187151 -21.4375 53.4375 C-21.93830078 54.97374023 -21.93830078 54.97374023 -22.44921875 56.54101562 C-22.76503906 57.52392578 -23.08085937 58.50683594 -23.40625 59.51953125 C-23.69951172 60.42550049 -23.99277344 61.33146973 -24.29492188 62.26489258 C-25.06885177 64.6997683 -25.06885177 64.6997683 -24.9375 67.625 C-21.3075 67.625 -17.6775 67.625 -13.9375 67.625 C-14.40742294 59.15402072 -15.19109884 50.93312204 -16.9375 42.625 C-17.2675 42.625 -17.5975 42.625 -17.9375 42.625 Z M-24.9375 46.625 C-23.9375 48.625 -23.9375 48.625 -23.9375 48.625 Z M-25.9375 49.625 C-24.9375 51.625 -24.9375 51.625 -24.9375 51.625 Z M-27.9375 53.625 C-26.9375 55.625 -26.9375 55.625 -26.9375 55.625 Z M-28.9375 56.625 C-27.9375 58.625 -27.9375 58.625 -27.9375 58.625 Z M-29.9375 59.625 C-28.9375 61.625 -28.9375 61.625 -28.9375 61.625 Z M-30.9375 61.625 C-31.2675 62.945 -31.5975 64.265 -31.9375 65.625 C-31.2775 65.295 -30.6175 64.965 -29.9375 64.625 C-30.2675 63.635 -30.5975 62.645 -30.9375 61.625 Z M-32.9375 65.625 C-31.9375 67.625 -31.9375 67.625 -31.9375 67.625 Z M-33.9375 68.625 C-32.9375 70.625 -32.9375 70.625 -32.9375 70.625 Z M-40.9375 87.625 C-40.9375 88.285 -40.9375 88.945 -40.9375 89.625 C-39.9475 89.295 -38.9575 88.965 -37.9375 88.625 C-38.9275 88.295 -39.9175 87.965 -40.9375 87.625 Z M7.0625 88.625 C6.4025 89.285 5.7425 89.945 5.0625 90.625 C5.7225 91.945 6.3825 93.265 7.0625 94.625 C6.4025 94.625 5.7425 94.625 5.0625 94.625 C4.7325 96.275 4.4025 97.925 4.0625 99.625 C6.87759993 101.9023501 6.87759993 101.9023501 10.0625 101.625 C10.18625 102.181875 10.31 102.73875 10.4375 103.3125 C11.12226855 105.84614364 12.05383763 108.20421032 13.0625 110.625 C13.3925 110.625 13.7225 110.625 14.0625 110.625 C14.22137802 106.21613498 13.69776218 102.50723316 12.5625 98.25 C12.2840625 97.19039062 12.005625 96.13078125 11.71875 95.0390625 C11.5021875 94.24242187 11.285625 93.44578125 11.0625 92.625 C10.0725 92.955 9.0825 93.285 8.0625 93.625 C8.3925 91.975 8.7225 90.325 9.0625 88.625 C8.4025 88.625 7.7425 88.625 7.0625 88.625 Z " fill="#FDFDFC" transform="translate(224.9375,172.375)"/>
<path d="M0 0 C5.53467256 1.48020313 8.86001096 5.4175545 12.75 9.375 C13.43449219 10.04789063 14.11898437 10.72078125 14.82421875 11.4140625 C15.47519531 12.06890625 16.12617188 12.72375 16.796875 13.3984375 C17.38823242 13.99317871 17.97958984 14.58791992 18.58886719 15.20068359 C20.14624045 17.18646922 20.73062315 18.49746364 21 21 C19.515625 23.375 19.515625 23.375 17.25 26 C16.00476563 27.4540625 16.00476563 27.4540625 14.734375 28.9375 C11.57402879 32.5037204 8.35016447 36.01164763 5.10424805 39.5 C1.19585788 43.71949555 -2.44460633 48.12481394 -6.02734375 52.625 C-7.90852216 54.8898643 -9.88413981 56.95514183 -12 59 C-10.37082058 64.10878485 -7.27914079 67.99709751 -4.125 72.25 C-2.9535943 73.84965091 -1.78304303 75.44992781 -0.61328125 77.05078125 C0.28269775 78.274021 0.28269775 78.274021 1.19677734 79.52197266 C4.06668711 83.46586436 6.8795336 87.44937381 9.6875 91.4375 C10.19200684 92.15260742 10.69651367 92.86771484 11.21630859 93.60449219 C16.99609409 101.81023784 16.99609409 101.81023784 17.046875 104.27734375 C15.46345204 108.3954251 12.51558187 110.69024226 9.25 113.5625 C8.62867188 114.12646484 8.00734375 114.69042969 7.3671875 115.27148438 C6.15127081 116.3681181 4.92555891 117.45400644 3.68945312 118.52783203 C2.21871674 119.80941301 0.78542773 121.13372057 -0.640625 122.46484375 C-3 124 -3 124 -5.51953125 124.1640625 C-9.12649829 122.47134411 -10.67740758 119.66561694 -12.6875 116.375 C-13.56355463 115.00374813 -14.43986404 113.632659 -15.31640625 112.26171875 C-15.9818042 111.20283447 -15.9818042 111.20283447 -16.66064453 110.12255859 C-18.76955807 106.78043423 -20.94019394 103.48036927 -23.125 100.1875 C-23.74109131 99.25695801 -23.74109131 99.25695801 -24.36962891 98.30761719 C-28.16834564 92.63144324 -32.15743596 86.84256404 -37 82 C-37.01981934 83.13018555 -37.03963867 84.26037109 -37.06005859 85.42480469 C-37.1361888 89.62196964 -37.22489479 93.81879126 -37.31738281 98.015625 C-37.35564191 99.83131121 -37.39050017 101.64707241 -37.421875 103.46289062 C-37.4675923 106.07449123 -37.52557536 108.68557688 -37.5859375 111.296875 C-37.60326431 112.51271271 -37.60326431 112.51271271 -37.62094116 113.75311279 C-37.72178156 117.61264724 -37.81111026 120.72818586 -40 124 C-43.96930989 124.02465881 -47.93859034 124.04284023 -51.90795898 124.05493164 C-53.25920386 124.05997057 -54.61044326 124.06680177 -55.96166992 124.07543945 C-57.90020434 124.08752419 -59.838778 124.09269828 -61.77734375 124.09765625 C-63.52905884 124.10551147 -63.52905884 124.10551147 -65.31616211 124.11352539 C-68 124 -68 124 -69 123 C-69.30807413 117.69785753 -69.24444339 112.37300632 -69.25 107.0625 C-69.25167175 106.22776154 -69.25334351 105.39302307 -69.25506592 104.5329895 C-69.257046 87.64349932 -68.50729635 70.80107194 -67.625 53.9375 C-67.56187622 52.71322296 -67.49875244 51.48894592 -67.43371582 50.22756958 C-66.79070293 37.93319201 -66.05275612 25.64758505 -65.0234375 13.37890625 C-64.95113922 12.45375717 -64.87884094 11.52860809 -64.80435181 10.57542419 C-64.7288913 9.73399368 -64.65343079 8.89256317 -64.57568359 8.02563477 C-64.51271088 7.2922438 -64.44973816 6.55885284 -64.38485718 5.80323792 C-64 4 -64 4 -62 2 C-59.41796875 1.74121094 -59.41796875 1.74121094 -56.1875 1.734375 C-55.02992188 1.73179687 -53.87234375 1.72921875 -52.6796875 1.7265625 C-51.46539062 1.73429688 -50.25109375 1.74203125 -49 1.75 C-47.78570312 1.74226562 -46.57140625 1.73453125 -45.3203125 1.7265625 C-43.58394531 1.73042969 -43.58394531 1.73042969 -41.8125 1.734375 C-40.74644531 1.73663086 -39.68039062 1.73888672 -38.58203125 1.74121094 C-36 2 -36 2 -34 4 C-33.78710938 5.99169922 -33.78710938 5.99169922 -33.84375 8.4296875 C-33.86179687 9.32526367 -33.87984375 10.22083984 -33.8984375 11.14355469 C-34.06422565 15.80634628 -34.25786357 20.4655097 -34.5 25.125 C-34.54769531 26.08148438 -34.59539062 27.03796875 -34.64453125 28.0234375 C-34.76081333 30.34907911 -34.87933246 32.67458253 -35 35 C-34.11739502 34.11739502 -33.23479004 33.23479004 -32.32543945 32.32543945 C-21.55029297 21.55029297 -10.77514648 10.77514648 0 0 Z M-48 72 C-48.33 72.66 -48.66 73.32 -49 74 C-48.34 74 -47.68 74 -47 74 C-47.33 73.34 -47.66 72.68 -48 72 Z " fill="#FDFDFD" transform="translate(323,167)"/>
<path d="M0 0 C1.32 0.33 2.64 0.66 4 1 C4 1.66 4 2.32 4 3 C4.66 3.66 5.32 4.32 6 5 C3.36 5 0.72 5 -2 5 C-2.33 5.66 -2.66 6.32 -3 7 C-3 5.68 -3 4.36 -3 3 C-2.34 3 -1.68 3 -1 3 C-0.67 2.01 -0.34 1.02 0 0 Z " fill="#ECEDEA" transform="translate(221,234)"/>
</svg>
